/* XPM */
static char * Icon32_xpm[] = {
"32 32 318 2",
"  	c None",
". 	c #C6C5C6",
"+ 	c #ABAAAB",
"@ 	c #A3A2A3",
"# 	c #9A999A",
"$ 	c #838282",
"% 	c #6F6D6E",
"& 	c #5C5A5B",
"* 	c #535151",
"= 	c #4F4E4E",
"- 	c #D4D3D3",
"; 	c #DEDDDE",
"> 	c #BBBABB",
", 	c #9F9D9E",
"' 	c #888687",
") 	c #757373",
"! 	c #636161",
"~ 	c #555353",
"{ 	c #474646",
"] 	c #3B3A3A",
"^ 	c #302F2F",
"/ 	c #2A2727",
"( 	c #2F2D2D",
"_ 	c #DBD9D9",
": 	c #E6E6E7",
"< 	c #C3C2C3",
"[ 	c #A6A4A5",
"} 	c #8E8C8D",
"| 	c #7A7878",
"1 	c #686666",
"2 	c #595757",
"3 	c #4B4949",
"4 	c #3E3C3D",
"5 	c #333131",
"6 	c #2A2828",
"7 	c #21201F",
"8 	c #1A1A19",
"9 	c #141313",
"0 	c #161414",
"a 	c #383536",
"b 	c #DBDADB",
"c 	c #CDCCCD",
"d 	c #ADACAD",
"e 	c #939293",
"f 	c #7F7D7E",
"g 	c #6C6A6B",
"h 	c #5D5B5B",
"i 	c #4E4D4D",
"j 	c #414040",
"k 	c #363434",
"l 	c #2C2A2A",
"m 	c #232121",
"n 	c #201E1E",
"o 	c #323131",
"p 	c #676667",
"q 	c #9A9A9B",
"r 	c #C4C4C6",
"s 	c #A1A2A4",
"t 	c #B2B0B0",
"u 	c #D3D3D3",
"v 	c #B4B3B5",
"w 	c #9A9899",
"x 	c #858383",
"y 	c #716F6F",
"z 	c #605E60",
"A 	c #525051",
"B 	c #454344",
"C 	c #393737",
"D 	c #262424",
"E 	c #222120",
"F 	c #3D3B3B",
"G 	c #9C9C9D",
"H 	c #D5D7D9",
"I 	c #C6C7C9",
"J 	c #A5A5A8",
"K 	c #525151",
"L 	c #272626",
"M 	c #B7B5B6",
"N 	c #A19FA0",
"O 	c #8A8888",
"P 	c #767475",
"Q 	c #656363",
"R 	c #565454",
"S 	c #484647",
"T 	c #3C3A3A",
"U 	c #312F2F",
"V 	c #282626",
"W 	c #1F1E1D",
"X 	c #252324",
"Y 	c #6D6C6D",
"Z 	c #D5D6D8",
"` 	c #C5C7C9",
" .	c #BFC0C2",
"..	c #616262",
"+.	c #222121",
"@.	c #9E9C9D",
"#.	c #908E8F",
"$.	c #7B7979",
"%.	c #696767",
"&.	c #5A5858",
"*.	c #4C4A4B",
"=.	c #3F3E3E",
"-.	c #343232",
";.	c #2B2929",
">.	c #222020",
",.	c #191818",
"'.	c #242222",
").	c #898789",
"!.	c #C0C1C3",
"~.	c #636364",
"{.	c #272525",
"].	c #1F1E1E",
"^.	c #1E1D1D",
"/.	c #848383",
"(.	c #828080",
"_.	c #6E6C6C",
":.	c #5E5C5C",
"<.	c #424141",
"[.	c #373535",
"}.	c #2D2B2B",
"|.	c #1C1A1A",
"1.	c #1C1B1B",
"2.	c #7E7D7E",
"3.	c #616162",
"4.	c #252423",
"5.	c #1E1D1C",
"6.	c #1B1B1B",
"7.	c #727171",
"8.	c #616060",
"9.	c #454343",
"0.	c #3B3939",
"a.	c #2C2A2B",
"b.	c #252323",
"c.	c #171616",
"d.	c #191717",
"e.	c #555455",
"f.	c #5A5A5C",
"g.	c #212020",
"h.	c #1B1A1A",
"i.	c #171615",
"j.	c #575555",
"k.	c #484747",
"l.	c #403E3E",
"m.	c #484646",
"n.	c #6B6A6B",
"o.	c #878687",
"p.	c #A2A2A3",
"q.	c #8A898B",
"r.	c #757475",
"s.	c #ACABAD",
"t.	c #B1B2B4",
"u.	c #4F4F51",
"v.	c #181717",
"w.	c #151414",
"x.	c #4D4B4C",
"y.	c #413F3F",
"z.	c #403F3F",
"A.	c #5F5E5E",
"B.	c #AEADAF",
"C.	c #E0E1E4",
"D.	c #CECFD1",
"E.	c #C8C9CB",
"F.	c #8D8D8E",
"G.	c #605D5D",
"H.	c #6D6B6B",
"I.	c #848485",
"J.	c #3E3E3F",
"K.	c #151514",
"L.	c #131312",
"M.	c #111111",
"N.	c #393838",
"O.	c #A6A6A8",
"P.	c #DEE0E1",
"Q.	c #D0D0D2",
"R.	c #C4C6C8",
"S.	c #C1C3C5",
"T.	c #A6A7A9",
"U.	c #605E5E",
"V.	c #52504F",
"W.	c #4A4747",
"X.	c #424040",
"Y.	c #6F6F71",
"Z.	c #292929",
"`.	c #131212",
" +	c #121111",
".+	c #10100F",
"++	c #595858",
"@+	c #4D4C4C",
"#+	c #CFCFD1",
"$+	c #D2D3D5",
"%+	c #C9CACC",
"&+	c #C2C4C6",
"*+	c #BEC0C3",
"=+	c #8D8C8E",
"-+	c #4A4847",
";+	c #3E3C3C",
">+	c #302E2E",
",+	c #434343",
"'+	c #191919",
")+	c #111110",
"!+	c #0F0F0E",
"~+	c #8B8B8B",
"{+	c #CCCDCF",
"]+	c #C7C8CB",
"^+	c #C3C5C6",
"/+	c #BFC2C4",
"(+	c #626162",
"_+	c #3F3D3D",
":+	c #2C2B2B",
"<+	c #1D1C1B",
"[+	c #2D2C2C",
"}+	c #2F2E2F",
"|+	c #111010",
"1+	c #0E0E0D",
"2+	c #0C0D0C",
"3+	c #BEBFC1",
"4+	c #C4C5C7",
"5+	c #C0C2C4",
"6+	c #333231",
"7+	c #2E2D2C",
"8+	c #292727",
"9+	c #1A1818",
"0+	c #131111",
"a+	c #0F100E",
"b+	c #0D0D0C",
"c+	c #0C0C0C",
"d+	c #0B0B0B",
"e+	c #0A0B0B",
"f+	c #525050",
"g+	c #B4B5B7",
"h+	c #383636",
"i+	c #201F1E",
"j+	c #1B1919",
"k+	c #171515",
"l+	c #141212",
"m+	c #110F0F",
"n+	c #0E0D0C",
"o+	c #0F0E0D",
"p+	c #2B2B2B",
"q+	c #1F1F1E",
"r+	c #0D0E0D",
"s+	c #0D0D0D",
"t+	c #0C0C0B",
"u+	c #0B0C0B",
"v+	c #2A2928",
"w+	c #20201F",
"x+	c #1C1B1A",
"y+	c #181616",
"z+	c #151413",
"A+	c #121010",
"B+	c #0E0D0D",
"C+	c #0D0C0C",
"D+	c #0A0A0A",
"E+	c #080908",
"F+	c #161616",
"G+	c #090B0A",
"H+	c #080B0A",
"I+	c #606060",
"J+	c #232222",
"K+	c #191817",
"L+	c #121110",
"M+	c #0D0C0B",
"N+	c #0B0A0A",
"O+	c #090909",
"P+	c #080909",
"Q+	c #101112",
"R+	c #1C1C1C",
"S+	c #0A0B0A",
"T+	c #080A0A",
"U+	c #1D1B1B",
"V+	c #4E4E4E",
"W+	c #131110",
"X+	c #100F0E",
"Y+	c #070908",
"Z+	c #131414",
"`+	c #090A0A",
" @	c #080A09",
".@	c #313030",
"+@	c #636465",
"@@	c #0C0B0A",
"#@	c #0A0A08",
"$@	c #090A09",
"%@	c #0A0C0B",
"&@	c #0D1010",
"*@	c #212223",
"=@	c #0E0E0E",
"-@	c #070A09",
";@	c #1D1C1C",
">@	c #171716",
",@	c #303030",
"'@	c #4F5050",
")@	c #100F0F",
"!@	c #111212",
"~@	c #151716",
"{@	c #111211",
"]@	c #070909",
"^@	c #131211",
"/@	c #202020",
"(@	c #262525",
"_@	c #101111",
":@	c #060909",
"<@	c #141414",
"[@	c #0E0F0E",
"}@	c #0F0F0F",
"|@	c #161615",
"1@	c #131313",
"2@	c #121211",
"3@	c #101110",
"4@	c #1A1A1A",
"5@	c #060808",
"6@	c #050808",
"7@	c #1A1919",
"8@	c #0F100F",
"9@	c #0C0C0D",
"0@	c #0C0E0D",
"a@	c #0C0D0B",
"b@	c #050708",
"c@	c #070809",
"                      . + @ # $ % & * =                         ",
"                  - ; > , ' ) ! ~ { ] ^ / (                     ",
"              _ : < [ } | 1 2 3 4 5 6 7 8 9 0 a                 ",
"            b c d e f g h i j k l m n o p q r   s               ",
"        t u v w x y z A B C ( D E F G H I       J K L           ",
"        M N O P Q R S T U V W X Y Z `  .          ..+.+.        ",
"      @.#.$.%.&.*.=.-.;.>.,.'.).  !.              ~.{.].^.      ",
"    /.(._.:.= <.[.}.m |.9 1.2.                    3.4.5.6.      ",
"    7.8.* 9.0.-.a.b.5.c.d.e.                      f.g.h.,.i.    ",
"  %.j.k.l.T m.n.o.G p.q.r.s.t.                    u.1.,.v.w.    ",
"  x.y.z.A.B.C.Z D.E.    F.G.H.I.                  J.w.i.K.L.M.  ",
"  N.S O.P.Q.E.R.S.    T.U.V.W.X.k.Y.              Z.9 9 `. +.+  ",
"++@+#+$+%+` &+*+      =+-+9.;+[.>+}.,+            '+`. +)+.+!+  ",
"~+Q.{+]+^+/+          (+_+C o :+L 7 <+[+        }+|+)+.+!+1+2+  ",
"3+{+4+5+              *.6+7+8+'.^.9+0 0+X       c.a+!+1+b+c+d+e+",
"f+g+                  h+6 b.i+j+k+l+m+n+o+p+  q+r+1+s+b+t+u+e+e+",
"[+e.                  v+w+x+y+z+A+B+C+D+E+F+   +b+b+c+u+d+e+G+H+",
"5 +.I+                J+K+z+L+o+M+N+O+P+Q+    R+d+u+u+d+S+G+T+  ",
"-.+.U+V+              '.W+X+C+d+O+Y+G+Z+        d+d+S+G+`+T+ @  ",
"o i+^.d..@+@          [+@@@@#@$@%@&@*@          =@$@`+T+ @-@-@  ",
"  ;@1.h.y+>@,@'@        )@.+!@~@                {@P+T+ @-@]@]@  ",
"  ;@,.v.k+K.^@.+>@/@(@p+                        _@]@-@]@]@:@    ",
"  J+c.K.<@9 `.{@.+1+c+[@                        }@:@]@:@:@:@    ",
"    |@1@`.2@3@.+!+b+c+b+4@                      r+:@:@5@6@      ",
"    7@ +)+8@!+1+b+c+u+d+2+                      %@5@5@6@6@      ",
"      `.!+1+b+9@2+c+u+d+e+0@                    ]@6@6@6@        ",
"        !+c+a@t+u+u+d+S+`+T+0@                  6@b@b@          ",
"          s+d+u+d+S+G+`+T+-@]@e+              c@b@b@            ",
"            c+e+`+T+T+-@-@]@]@:@]@            6@b@              ",
"              e+D+ @-@]@]@]@]@:@6@6@5@c@                        ",
"                     @]@]@:@6@6@6@6@6@b@                        ",
"                            6@6@6@                              "};
